# xmcd CD database file
#
# Track frame offsets:
#	150
#	15220
#	30260
#	42212
#	56802
#	68952
#	79470
#	93180
#	108437
#	124179
#	135662
#	148597
#	162067
#	175060
#	187840
#	203659
#	216957
#
# Disc length: 3057 seconds
#
# Revision: 0
# Processed by: cddbd v1.5.2PL0 Copyright (c) Steve Scherf et al.
# Submitted via: CDex 1.70beta2
#
DISCID=df0bef11
DTITLE=Celia Cruz - Anniversario
DYEAR=1900
DGENRE=Salsa
TTITLE0=Tu Voz
TTITLE1=Guatanamera
TTITLE2=Burundanga
TTITLE3=Canoera
TTITLE4=El Yerberito Moderno
TTITLE5=Alguien
TTITLE6=Commencé A Adorarte
TTITLE7=Ven Bernabé
TTITLE8=Pulpa de Tamarindo
TTITLE9=Angelitos Negros
TTITLE10=La Bikina
TTITLE11=Ay, Ay, Ay
TTITLE12=El Pescador
TTITLE13=Su Majestad La Rumba
TTITLE14=La Campeona
TTITLE15=El Panquelero
TTITLE16=Juntos
EXTD=
EXTT0=
EXTT1=
EXTT2=
EXTT3=
EXTT4=
EXTT5=
EXTT6=
EXTT7=
EXTT8=
EXTT9=
EXTT10=
EXTT11=
EXTT12=
EXTT13=
EXTT14=
EXTT15=
EXTT16=
PLAYORDER=
